<svg width="256" height="256" viewBox="0 0 256 256" fill="none" xmlns="http://www.w3.org/2000/svg">
<rect width="256" height="256" rx="64" fill="white"/>
<path d="M39.0189 120.361C38.566 122.512 38.2264 124.267 38 125.625C38 126.644 38.4528 127.323 39.3585 127.663C40.3774 127.889 41.2264 127.776 41.9057 127.323C42.4717 127.097 43.0943 125.738 43.7736 123.248C44.566 120.644 45.3585 117.927 46.1509 115.097C46.9434 112.267 48.1321 109.719 49.717 107.455C51.4151 105.078 53.2264 103.889 55.1509 103.889C58.0943 103.889 59.566 106.04 59.566 110.342C59.566 112.946 58.6604 117.927 56.8491 125.285L46.3208 167.229C45.6415 170.285 45.3019 171.927 45.3019 172.153C45.3019 173.512 45.7547 174.587 46.6604 175.38C47.6792 176.285 48.8113 176.738 50.0566 176.738C52.7736 176.738 54.6981 175.323 55.8302 172.493C56.0566 172.04 56.9057 168.757 58.3774 162.644C59.9623 156.531 61.4906 150.587 62.9623 144.814C64.434 138.927 65.1698 135.927 65.1698 135.814H97.434C93.5849 150.078 91.6604 158.625 91.6604 161.455C91.6604 165.984 93.0189 169.663 95.7358 172.493C98.4528 175.323 101.849 176.738 105.925 176.738C110.679 176.738 114.642 173.852 117.811 168.078C119.17 165.474 120.415 162.191 121.547 158.229C122.34 155.512 122.783 154.785 124.142 154.785C136.708 154.446 140.34 154.318 141.585 154.318C148.943 154.318 156.358 154.488 163.83 154.828V148.715H161.623C157.321 148.715 154.66 148.545 153.642 148.205C152.736 147.752 152.226 146.62 152.113 144.809V116.111H186.755V144.809C186.642 146.62 186.075 147.752 185.057 148.205C184.038 148.545 181.434 148.715 177.245 148.715H175.038V154.828C187.604 154.488 194.453 154.318 195.585 154.318C203.057 154.318 210.528 154.488 218 154.828V148.715H215.113C211.151 148.715 208.66 148.545 207.641 148.205C206.623 147.752 206.113 146.62 206.113 144.809V89.1107C206.113 87.5258 206.566 86.507 207.472 86.0541C208.491 85.6013 210.981 85.3749 214.943 85.3749H218V79.2617C211.208 79.6013 204.358 79.7711 197.453 79.7711C189.981 79.7711 182.509 79.6013 175.038 79.2617V85.3749H176.906C181.208 85.3749 183.868 85.5447 184.887 85.8843C186.019 86.224 186.642 87.1862 186.755 88.7711V110.507H152.113V90.2994C152.113 88.0353 152.566 86.6768 153.472 86.224C154.491 85.6579 157.321 85.3749 161.962 85.3749H163.83V79.2617C156.358 79.6013 148.887 79.7711 141.415 79.7711C134.509 79.7711 127.66 79.6013 120.868 79.2617V85.3749H123.415C127.491 85.3749 130.038 85.6013 131.057 86.0541C132.189 86.3938 132.755 87.5258 132.755 89.4504V144.979C132.755 146.564 132.302 147.582 131.396 148.035C130.491 148.488 127.943 148.715 123.755 148.715L120.868 148.719C119.509 148.719 118.434 150.078 117.642 152.795C117.528 153.021 117.302 153.814 116.962 155.172C116.623 156.531 116.283 157.719 115.943 158.738C115.717 159.644 115.321 160.889 114.755 162.474C114.302 163.946 113.792 165.248 113.226 166.38C112.66 167.399 112.038 168.474 111.358 169.606C110.679 170.625 109.887 171.418 108.981 171.984C108.075 172.55 107.17 172.833 106.264 172.833C103.321 172.833 101.849 170.568 101.849 166.04C101.849 162.87 104.113 152.455 108.642 134.795C113.283 117.135 115.604 107.625 115.604 106.267C115.604 104.908 115.094 103.833 114.075 103.04C113.17 102.248 112.094 101.852 110.849 101.852C108.245 101.852 106.321 103.38 105.075 106.436C103.943 109.38 101.736 117.87 98.4528 131.908H66.1887C68.566 123.191 69.7547 117.587 69.7547 115.097C69.7547 110.682 68.3962 107.059 65.6792 104.229C63.0755 101.285 59.7358 99.8138 55.6604 99.8138C53.3962 99.8138 51.3585 100.38 49.5472 101.512C47.0566 103.097 44.7925 106.097 42.7547 110.512C40.8302 114.814 39.5849 118.097 39.0189 120.361Z" fill="black"/>
</svg>